<svg xmlns="http://www.w3.org/2000/svg" viewBox="0 0 238.15 303.47"><defs><style>.cls-1{fill:#f0e7dd;}</style></defs><g id="Layer_2" data-name="Layer 2"><g id="Layer_1-2" data-name="Layer 1"><path class="cls-1" d="M133.47,3.7q-5-3.7-14.68-3.7c-6.44,0-11.23,1.37-14.41,4.08a13.16,13.16,0,0,0-4.73,10.38A14.13,14.13,0,0,0,104,25c2.9,2.82,7.78,4.24,14.6,4.24s11.86-1.37,15.09-4.08a13.68,13.68,0,0,0,4.82-10.93C138.51,9.67,136.84,6.16,133.47,3.7Z"/><path class="cls-1" d="M90.9,99q9.81,7.51,28.74,7.51t28.21-8.29a27.16,27.16,0,0,0,9.28-21.09,29.26,29.26,0,0,0-8.53-21.37q-8.53-8.6-28.58-8.62T90.47,55.41Q81.05,63.75,81,77.61C81,86.85,84.3,94,90.9,99Z"/><path class="cls-1" d="M207.27,147.05q-30.71-22.67-90-22.66T29,149.4C9.73,166.18,0,187.33,0,213c0,25.51,8.9,47.16,26.69,64.44s47.66,26,89.45,26,72.67-8.39,92.48-25c19.63-16.78,29.53-39.1,29.53-67S227.92,162.15,207.27,147.05Z"/></g></g></svg>