<svg xmlns="http://www.w3.org/2000/svg" viewBox="0 0 256 256"><defs><style>.cls-1{fill:#f4af88;}.cls-2{fill:#f89523;}.cls-3{fill:#d1cbbe;}.cls-4{fill:#f3e6e0;}</style></defs><g id="Layer_2" data-name="Layer 2"><path class="cls-1" d="M218,103.28l-27.41-38.5c-1.22-2.13-5.12-9.64-7.44-10.64l-27-15.32a19.13,19.13,0,0,0-7.21-1.53,52,52,0,0,1-22.47,3.6,51.09,51.09,0,0,1-17.19-4.16,21.43,21.43,0,0,0-5.2.56,20.87,20.87,0,0,0-4.88,1.79L66.94,55.62A21.32,21.32,0,0,0,58,64.22L37.4,101.51a10.77,10.77,0,0,0,2.82,13.76c7.12,5.59,18.53,12,28.5,6.13,13.43-7.93,6.36,62.23,3.86,84A11,11,0,0,0,78,216.12c11.88,7,39.89-3,86.43,2.54,25.47,3,5.06-62.23,13.65-85.49,7.25-19.61,6-12.52,12.6-9a12.05,12.05,0,0,0,7.09,1.32c6.53-.75,16.44-5.39,23.2-13C224.12,109,220.26,107.29,218,103.28Z"/><path class="cls-2" d="M87.25,198.69l-7-13.59a10.76,10.76,0,0,0-4.18-4.41L62.88,173l13.59-7a10.85,10.85,0,0,0,4.41-4.19l7.68-13.2,7,13.59a10.83,10.83,0,0,0,4.18,4.41l13.21,7.68-13.59,7a10.85,10.85,0,0,0-4.41,4.19Z"/><path class="cls-3" d="M123.28,162.66l-4.67-9.1a7.32,7.32,0,0,0-2.8-3L107,145.46l9.11-4.67a7.23,7.23,0,0,0,3-2.8l5.14-8.85,4.67,9.11a7.32,7.32,0,0,0,2.81,2.95l8.84,5.14-9.1,4.67a7.35,7.35,0,0,0-3,2.81Z"/><path class="cls-4" d="M95.17,134.55,92,128.36a4.91,4.91,0,0,0-1.9-2l-6-3.5,6.19-3.18a4.93,4.93,0,0,0,2-1.91l3.5-6,3.18,6.2a5.06,5.06,0,0,0,1.91,2l6,3.5-6.19,3.18a5,5,0,0,0-2,1.9Z"/></g></svg>