<svg width="282" height="282" viewBox="0 0 282 282" fill="none" xmlns="http://www.w3.org/2000/svg">
<path d="M233.024 128.94C233.024 129.94 233.024 130.94 233.024 131.94C233.024 157.64 232.924 183.44 233.024 209.14C233.024 214.64 232.624 219.94 229.024 224.64C230.124 224.84 230.924 225.04 231.824 225.24C237.224 226.64 240.924 231.34 240.924 236.94C241.024 251.74 228.924 264.34 214.124 264.84C208.524 265.04 202.924 264.94 197.424 264.94C154.824 264.94 112.324 264.94 69.7236 264.94C56.0236 264.94 44.9236 256.44 41.8236 243.34C41.2236 240.64 40.9236 237.64 41.2236 234.94C41.9236 229.34 46.0236 225.94 52.9236 224.74C48.5236 219.24 48.9236 212.74 48.9236 206.34C48.9236 181.54 48.9236 156.64 48.9236 131.84C48.9236 130.84 48.9236 129.84 48.9236 128.74C42.6236 127.84 36.9236 125.84 32.0236 122.14C20.1236 113.04 14.8236 100.94 17.8236 86.2401C20.8236 71.2401 30.3236 61.7401 45.2236 57.9401C46.8236 57.5401 47.5236 56.8401 48.0236 55.3401C56.1236 31.0401 79.0236 15.3401 104.424 17.1401C123.224 18.4401 137.924 27.3401 148.324 43.1401C148.824 43.8401 149.224 44.5401 149.624 45.2401C174.024 36.0401 193.424 42.2401 207.924 63.7401C221.824 54.9401 236.124 54.1401 249.924 63.8401C262.224 72.5401 267.324 85.1401 264.324 99.9401C260.824 116.44 249.824 125.74 233.024 128.94ZM149.224 152.94C149.224 128.74 149.224 104.94 149.224 81.0401C151.824 81.0401 154.324 81.0401 157.124 81.0401C157.124 86.3401 157.124 91.5401 157.124 96.9401C158.324 96.9401 159.224 96.9401 160.124 96.9401C177.624 96.9401 195.124 96.9401 212.624 96.9401C223.224 96.9401 231.324 103.94 232.924 114.24C233.224 116.24 233.124 118.34 233.224 120.34C245.424 119.44 256.224 107.64 257.024 94.7401C257.824 80.8401 248.324 68.2401 234.824 65.5401C227.924 64.1401 221.424 65.1401 215.324 68.6401C207.324 73.2401 202.824 80.3401 201.224 89.5401C198.524 89.1401 196.024 88.8401 193.524 88.5401C193.824 83.2401 196.324 76.6401 200.324 71.5401C201.324 70.2401 201.424 69.2401 200.624 67.8401C191.924 51.7401 172.424 44.7401 155.524 51.8401C152.424 53.1401 149.524 54.9401 146.324 56.6401C145.724 55.3401 145.124 54.1401 144.524 52.8401C134.424 32.2401 113.324 21.3401 91.3236 26.1401C71.5236 30.3401 59.3236 42.9401 54.3236 62.5401C53.8236 64.3401 53.2236 65.0401 51.2236 65.1401C38.5236 66.1401 28.3236 75.0401 25.6236 87.1401C23.0236 98.9401 28.4236 111.24 39.1236 117.14C42.0236 118.74 45.4236 119.74 49.0236 121.14C49.0236 119.74 49.0236 119.14 49.0236 118.54C49.1236 105.14 57.3236 96.9401 70.8236 96.9401C88.0236 96.9401 105.124 96.9401 122.324 96.9401C123.224 96.9401 124.124 96.9401 125.124 96.9401C125.124 91.4401 125.124 86.3401 125.124 81.1401C127.824 81.1401 130.324 81.1401 132.924 81.1401C132.924 105.14 132.924 129.04 132.924 153.04C128.624 153.04 124.624 153.04 120.524 153.04C117.124 153.04 116.324 154.54 118.024 157.44C124.624 168.54 131.324 179.54 137.924 190.64C139.824 193.74 142.324 193.74 144.224 190.64C150.924 179.54 157.524 168.54 164.124 157.44C165.824 154.54 165.024 153.04 161.624 153.04C157.524 152.94 153.424 152.94 149.224 152.94ZM157.224 121.04C157.224 129.14 157.224 137.04 157.224 144.94C159.024 144.94 160.724 144.94 162.424 144.94C170.924 145.04 175.824 153.34 171.524 160.64C164.724 172.24 157.724 183.84 150.724 195.34C146.024 203.04 136.224 202.84 131.424 195.24C129.524 192.24 127.824 189.24 126.024 186.24C120.924 177.64 115.624 169.14 110.624 160.54C106.524 153.44 111.324 145.24 119.424 145.04C121.224 145.04 123.024 145.04 124.924 145.04C124.924 136.94 124.924 129.04 124.924 121.24C107.524 121.24 90.4236 121.24 73.2236 121.24C73.2236 150.54 73.2236 179.74 73.2236 208.84C118.524 208.84 163.724 208.84 208.824 208.84C208.824 179.44 208.824 150.34 208.824 121.04C191.524 121.04 174.424 121.04 157.224 121.04ZM141.024 232.94C112.324 232.94 83.5236 232.94 54.8236 232.94C50.0236 232.94 48.5236 234.74 49.2236 239.44C50.7236 249.74 58.9236 256.94 69.4236 256.94C117.224 256.94 165.024 256.94 212.824 256.94C223.224 256.94 231.224 249.94 232.924 239.64C233.724 234.84 232.124 232.94 227.324 232.94C198.424 232.94 169.724 232.94 141.024 232.94ZM157.124 112.94C158.224 112.94 159.124 112.94 160.024 112.94C176.024 112.94 192.024 112.94 208.024 112.94C213.824 112.94 217.024 116.14 217.024 121.94C217.024 150.64 217.024 179.24 217.024 207.94C217.024 213.84 213.824 216.94 207.824 216.94C163.224 216.94 118.624 216.94 74.1236 216.94C68.1236 216.94 65.0236 213.84 65.0236 207.84C65.0236 179.24 65.0236 150.64 65.0236 122.14C65.0236 116.04 68.1236 112.94 74.3236 112.94C90.3236 112.94 106.324 112.94 122.324 112.94C123.224 112.94 124.124 112.94 124.924 112.94C124.924 110.14 124.924 107.64 124.924 104.94C124.024 104.94 123.124 104.94 122.324 104.94C104.924 104.94 87.5236 104.94 70.1236 104.94C62.0236 104.94 57.1236 109.84 57.1236 118.04C57.1236 149.24 57.1236 180.54 57.1236 211.74C57.1236 220.04 62.0236 224.84 70.4236 224.84C117.624 224.84 164.724 224.84 211.924 224.84C220.224 224.84 225.124 219.94 225.124 211.64C225.124 180.44 225.124 149.34 225.124 118.14C225.124 109.64 220.324 104.84 211.824 104.84C194.524 104.84 177.124 104.84 159.824 104.84C159.024 104.84 158.224 104.84 157.324 104.84C157.124 107.74 157.124 110.14 157.124 112.94Z" fill="#8B5028"/>
<path d="M72.9236 44.74C87.4236 29.24 114.224 29.04 129.024 44.74C127.224 46.54 125.424 48.24 123.524 50.04C110.224 37.64 90.9236 38.34 78.3236 50.14C76.5236 48.34 74.7236 46.54 72.9236 44.74Z" fill="#8B5028"/>
<path d="M132.924 65.1401C132.924 67.7401 132.924 70.2401 132.924 72.8401C130.324 72.8401 127.824 72.8401 125.124 72.8401C125.124 70.3401 125.124 67.8401 125.124 65.1401C127.624 65.1401 130.124 65.1401 132.924 65.1401Z" fill="#8B5028"/>
<path d="M185.024 241.14C185.024 243.74 185.024 246.14 185.024 248.74C182.524 248.74 179.924 248.74 177.224 248.74C177.224 246.34 177.224 243.74 177.224 241.14C179.724 241.14 182.224 241.14 185.024 241.14Z" fill="#8B5028"/>
<path d="M200.824 248.84C198.224 248.84 195.724 248.84 193.124 248.84C193.124 246.24 193.124 243.84 193.124 241.14C195.624 241.14 198.124 241.14 200.824 241.14C200.824 243.64 200.824 246.14 200.824 248.84Z" fill="#8B5028"/>
<path d="M209.024 248.74C209.024 246.14 209.024 243.74 209.024 241.14C211.624 241.14 214.124 241.14 216.824 241.14C216.824 243.64 216.824 246.14 216.824 248.74C214.224 248.74 211.624 248.74 209.024 248.74Z" fill="#8B5028"/>
</svg>
