<svg width="313" height="291" viewBox="0 0 313 291" fill="none" xmlns="http://www.w3.org/2000/svg">
<g clip-path="url(#clip0_595_613)">
<path d="M186.758 58.9675C148.939 40.9921 115.579 22.1838 86.6793 2.54244C85.9902 3.87573 85.2108 5.1661 84.5411 6.57504C71.574 33.8569 71.2882 59.5079 83.6837 83.5282C95.98 107.509 120.764 128.356 158.034 146.071C195.305 163.786 226.951 168.822 252.972 161.179C279.002 153.4 298.03 137.056 309.994 111.884C310.814 110.159 311.473 108.424 312.199 106.687C273.043 95.9671 231.229 80.0605 186.758 58.9675Z" fill="#CD9144"/>
</g>
<g clip-path="url(#clip1_595_613)">
<path d="M142.758 150.968C104.939 132.992 71.5793 114.184 42.6793 94.5425C41.9902 95.8758 41.2108 97.1662 40.5411 98.5751C27.574 125.857 27.2882 151.508 39.6837 175.528C51.98 199.509 76.7636 220.357 114.034 238.071C151.305 255.786 182.951 260.822 208.972 253.179C235.002 245.4 254.03 229.056 265.994 203.884C266.814 202.159 267.473 200.424 268.199 198.687C229.043 187.967 187.229 172.061 142.758 150.968Z" fill="#CD9144"/>
</g>
<defs>
<clipPath id="clip0_595_613">
<rect width="101.72" height="248.83" fill="white" transform="translate(44 91.8706) rotate(-64.5782)"/>
</clipPath>
<clipPath id="clip1_595_613">
<rect width="101.72" height="248.83" fill="white" transform="translate(0 183.871) rotate(-64.5782)"/>
</clipPath>
</defs>
</svg>
