<svg width="282" height="282" viewBox="0 0 282 282" fill="none" xmlns="http://www.w3.org/2000/svg">
<path d="M116.1 221.4C132.9 221.4 149.3 221.4 166.1 221.4C166.1 218.3 166.1 215.3 166 212.2C166 211.8 165.3 211.2 164.8 211C163.1 210.3 161.3 209.8 159.7 208.9C153.4 205.6 150 200.5 150.1 193.2C150.1 188.7 150.1 184.2 150.1 179.7C148.8 179.5 147.5 179.4 146.4 179C142.7 178 140.1 175 140.1 171.2C140 160.5 140 149.7 140.1 139C140.2 134.7 143.5 131.4 147.8 130.8C148.5 130.7 149.3 130.6 150.2 130.5C150.2 128.2 150.2 126.1 150.2 123.9C150.3 121.3 151.7 119.8 153.9 119.8C156.1 119.8 157.6 121.3 157.7 123.8C157.8 126 157.7 128.1 157.7 130.6C159.8 130.6 161.8 130.6 163.8 130.6C168.6 130.6 173.5 130.7 178.3 130.6C182.7 130.5 186.2 131.9 188 136.1C189.8 140.3 188.3 143.9 185.1 146.9C184.9 147.1 184.7 147.4 183.9 148.3C185.1 149.3 186.4 150.2 187.6 151.3C191.2 154.9 194.9 158.4 198.4 162.1C202 165.9 202.1 170.9 198.5 174.7C193.8 179.6 189 184.3 184.2 189C180.3 192.8 175.2 192.7 171.3 188.8C167.5 185.1 163.8 181.3 160 177.5C159.4 176.9 158.8 176.4 158 175.6C158 182.5 157.8 188.9 158.1 195.4C158.3 198.8 160.8 201 163.8 202.4C165.4 203.1 167.1 203.6 168.8 204.1C172 205.1 173.8 207.3 173.9 210.7C174 214.4 174 218.2 173.9 221.9C173.8 226.2 171.2 228.8 166.8 228.9C158.1 228.9 149.5 228.9 140.8 228.9C132.7 228.9 124.6 228.9 116.6 228.9C111.5 228.9 109 226.4 109 221.2C109 217.9 109 214.5 109 211.2C109 207.2 110.7 205.1 114.5 203.9C116.3 203.4 118.2 202.8 119.8 201.9C123.2 200.1 124.9 197.3 124.9 193.4C124.9 159.7 124.9 125.9 124.9 92.2C124.9 91.6 124.8 90.9 124.8 90.2C117 90.2 109.4 90 101.7 90.3C99.8 90.4 97.7 92 96.3 93.4C95 94.7 94 96.6 93.6 98.4C92.2 105.2 89.4 106.4 82.9 106C80.2 105.9 77.6 106 74.9 106C70.9 105.9 68.1 103.6 68.1 99.6C68 87.8 68 75.9 68.1 64.1C68.1 60.3 70.8 57.7 74.6 57.6C83.3 57.5 92.1 57.5 100.8 57.6C103.3 57.6 104.9 59.2 104.9 61.4C104.9 63.6 103.3 65 100.7 65C93.3 65 85.9 65 78.5 65C77.6 65 76.7 65 75.7 65C75.7 76.2 75.7 87.2 75.7 98.3C79 98.3 82.2 98.3 85.6 98.3C86.2 96.7 86.7 95 87.5 93.3C90.8 86.2 96.2 82.4 104.2 82.5C111.6 82.6 119 82.5 126.4 82.5C131.5 82.5 132.4 83.4 132.4 88.4C132.4 122.9 132.4 157.4 132.4 191.9C132.4 201.6 128.3 207.4 119.1 210.3C116.8 211 116.2 212.1 116.3 214.3C116.2 216.6 116.1 218.9 116.1 221.4ZM147.4 155.1C147.4 160 147.4 164.9 147.4 169.8C147.4 170.5 147.8 171.6 148.2 171.7C148.9 171.8 149.7 171.4 150.3 171C151.5 170.1 152.4 168.9 153.5 167.9C156.2 165.3 157.9 165.3 160.5 167.9C165.5 172.9 170.6 177.9 175.5 182.9C177 184.5 178.1 184.5 179.6 182.9C183.5 178.8 187.6 174.9 191.6 170.9C193.8 168.7 193.8 168.5 191.6 166.3C186.6 161.3 181.6 156.3 176.6 151.3C174.3 149 174.3 147.2 176.6 144.8C177.6 143.8 178.7 142.9 179.6 141.8C180.2 141.1 180.5 140.2 181 139.3C180.1 139 179.2 138.4 178.4 138.4C169 138.3 159.6 138.4 150.2 138.3C148.1 138.3 147.5 139.1 147.5 141.1C147.5 145.7 147.4 150.4 147.4 155.1Z" fill="#8B5028"/>
<path d="M157.6 90.1C157.6 95.3 157.6 100 157.6 104.8C157.6 108 156.3 109.6 153.8 109.6C151.4 109.6 150.1 107.9 150.1 104.7C150.1 99 150.1 93.2 150.1 87.5C150.1 84 151.4 82.7 154.9 82.6C162.5 82.6 170.1 82.6 177.6 82.6C186.9 82.6 192.8 86.7 195.9 95.5C196.2 96.4 196.5 97.4 196.8 98.4C200.1 98.4 203.3 98.4 206.7 98.4C206.7 87.4 206.7 76.5 206.7 65.1C205.7 65.1 204.7 65.1 203.6 65.1C175.9 65.1 148.1 65.1 120.4 65.1C116.5 65.1 114.8 64 114.8 61.4C114.8 58.8 116.6 57.6 120.4 57.6C149 57.6 177.5 57.6 206.1 57.6C212.1 57.6 214.4 60 214.4 65.9C214.4 76.6 214.4 87.2 214.4 97.9C214.4 103.8 212.1 106.1 206.2 106.1C202.9 106.1 199.5 106.1 196.2 106.1C192.7 106.1 190.5 104.3 189.5 100.9C189 99.3 188.6 97.7 187.9 96.2C186.1 92.2 183 90.1 178.5 90.1C171.7 90.1 164.8 90.1 157.6 90.1Z" fill="#8B5028"/>
<path d="M223.6 31.7C223.6 29.2 223.6 26.8 223.6 24.4C223.8 17.6 228.4 13 235.2 13C242.6 13 250 13 257.4 13C264.3 13 269 17.7 269 24.6C269 32 269 39.4 269 46.8C269 53.4 264.4 58.1 257.8 58.3C255.4 58.4 253 58.3 250.4 58.3C249.9 60.7 249 62.9 246.1 62.7C243.7 62.5 242.8 60.8 242.5 58.4C237.2 57.9 231.4 59.5 226.9 55C222.5 50.6 224 44.9 223.6 39.5C221.2 39.2 219.3 38.2 219.3 35.5C219.2 33 221.1 32 223.6 31.7ZM261.6 35.5C261.6 31.9 261.6 28.3 261.6 24.8C261.6 21.9 260.3 20.6 257.3 20.6C250.1 20.6 242.8 20.6 235.6 20.6C232.6 20.6 231.3 21.9 231.3 24.8C231.2 32 231.3 39.3 231.3 46.5C231.3 49.6 232.6 50.9 235.8 50.9C243 50.9 250.1 50.9 257.3 50.9C260.5 50.9 261.7 49.6 261.7 46.2C261.6 42.6 261.6 39.1 261.6 35.5Z" fill="#8B5028"/>
<path d="M58.5 31.7C61 31.9 62.9 33 62.9 35.6C62.9 38.2 61 39.2 58.6 39.6C58.2 45 59.7 50.7 55.2 55.1C50.8 59.5 45.1 58.1 39.7 58.5C39.3 60.9 38.3 63 35.5 62.8C33.1 62.7 32 60.9 31.9 58.4C29.4 58.4 27.1 58.4 24.8 58.4C17.7 58.3 13.1 53.7 13.1 46.6C13.1 39.3 13.1 31.9 13.1 24.6C13.1 17.7 17.8 13 24.7 13C32.1 13 39.5 13 46.9 13C53.7 13 58.3 17.6 58.5 24.4C58.5 26.8 58.5 29.2 58.5 31.7ZM35.6 20.5C32.1 20.5 28.6 20.5 25.1 20.5C21.8 20.5 20.6 21.7 20.6 25C20.6 32.1 20.6 39.1 20.6 46.2C20.6 49.5 21.8 50.8 25.1 50.8C32.3 50.8 39.4 50.8 46.6 50.8C49.7 50.8 51 49.5 51 46.4C51 39.2 51 32.1 51 24.9C51 21.7 49.7 20.5 46.4 20.4C42.7 20.5 39.2 20.5 35.6 20.5Z" fill="#8B5028"/>
<path d="M223.6 250.1C220.9 249.9 219.2 248.8 219.2 246.3C219.2 243.6 221.1 242.6 223.5 242.3C223.9 237 222.4 231.3 226.8 226.9C231.2 222.4 236.9 223.8 242.3 223.5C242.6 221.1 243.7 219.1 246.4 219.2C248.9 219.3 249.9 221.1 250.1 223.6C252.6 223.6 255 223.6 257.4 223.6C264.3 223.7 268.9 228.4 268.9 235.3C268.9 242.6 268.9 250 268.9 257.3C268.9 264.4 264.2 269 257.1 269C249.9 269 242.6 269 235.4 269C228.2 269 223.6 264.4 223.5 257.1C223.6 254.8 223.6 252.6 223.6 250.1ZM246.1 261.5C249.8 261.5 253.6 261.5 257.3 261.5C260.1 261.5 261.5 260.2 261.5 257.4C261.5 250 261.5 242.6 261.5 235.2C261.5 232.6 260.1 231.2 257.5 231.2C250.1 231.1 242.7 231.1 235.3 231.2C232.6 231.2 231.2 232.6 231.2 235.2C231.1 242.6 231.1 250 231.2 257.4C231.2 260.2 232.6 261.5 235.4 261.5C239 261.5 242.5 261.5 246.1 261.5Z" fill="#8B5028"/>
<path d="M31.9 223.6C32.1 221 33.2 219.2 35.7 219.2C38.4 219.2 39.4 221.1 39.7 223.5C45 223.9 50.7 222.4 55.1 226.8C59.6 231.2 58.1 236.9 58.5 242.3C60.9 242.6 62.9 243.7 62.8 246.4C62.7 248.9 61 250 58.4 250.1C58.4 252.6 58.4 255 58.4 257.5C58.3 264.4 53.2 270.2 43.9 268.9C42 268.6 40.8 267.2 40.9 265.2C41 263 42.2 261.8 44.3 261.6C50.9 260.7 50.9 260.7 50.9 254.1C50.9 248.2 50.9 242.3 50.9 236.4C50.9 232.4 49.7 231.3 45.9 231.3C39.1 231.3 32.2 231.3 25.4 231.3C21.7 231.3 20.5 232.5 20.5 236.3C20.5 243.2 20.5 250.1 20.5 257C20.5 260.5 21.7 261.6 25.1 261.7C25.8 261.7 26.4 261.6 27.1 261.7C29.2 262 30.4 263.2 30.5 265.4C30.5 267.6 29.3 268.8 27.2 269.2C19 270.5 13 265.3 13 257C13 249.8 13 242.7 13 235.5C13 228.6 17.7 224 24.6 223.8C27 223.5 29.3 223.6 31.9 223.6Z" fill="#8B5028"/>
<path d="M104.6 250C103.5 250 102.4 250.1 101.4 250C99.3 249.8 98.1 248.6 98 246.5C97.9 244.3 99.1 242.9 101.1 242.7C103.5 242.4 105.9 242.4 108.3 242.7C110.3 242.9 111.5 244.5 111.4 246.6C111.3 248.6 110 249.9 107.9 250.1C106.8 250.1 105.7 250 104.6 250Z" fill="#8B5028"/>
<path d="M177.5 31.9C178.6 31.9 179.7 31.8 180.7 31.9C182.7 32.1 183.9 33.2 184.1 35.2C184.3 37.3 183.2 38.9001 181.2 39.2001C178.8 39.5001 176.2 39.5001 173.8 39.2001C171.8 39.0001 170.6 37.4 170.7 35.3C170.8 33.3 172.1 32 174.2 31.8C175.3 31.9 176.4 31.9 177.5 31.9Z" fill="#8B5028"/>
<path d="M250.1 104.5C250.1 105.6 250.2 106.7 250.1 107.7C250 109.8 248.7 111.1 246.6 111.2C244.5 111.3 243 110.1 242.7 108.1C242.4 105.7 242.4 103.3 242.7 100.9C242.9 98.9 244.3 97.7 246.5 97.8C248.6 97.9 249.8 99.1 250 101.2C250.2 102.4 250.1 103.5 250.1 104.5Z" fill="#8B5028"/>
<path d="M39.5 104.7C39.5 105.8 39.6 106.9 39.5 107.9C39.3 110 37.5 111.5 35.6 111.4C33.6 111.3 32.1 109.8 32 107.6C31.9 105.6 31.9 103.6 32 101.6C32.1 99.2999 33.4 97.8999 35.5 97.7999C37.6 97.6999 39.3 99.0999 39.5 101.4C39.6 102.5 39.5 103.6 39.5 104.7Z" fill="#8B5028"/>
<path d="M250.1 80.2C250.1 81.3 250.2 82.4 250.1 83.4C249.9 85.5 248.8 86.8 246.7 87C244.7 87.2 242.9 85.8 242.7 83.7C242.5 81.5 242.5 79.2 242.7 77C242.8 74.9 244.6 73.4 246.5 73.5C248.5 73.6 250 75.1 250.1 77.2C250.1 78.2 250.1 79.2 250.1 80.2Z" fill="#8B5028"/>
<path d="M201.7 250C200.6 250 199.5 250.1 198.5 250C196.4 249.8 195.1 248.6 195 246.5C194.9 244.3 196.1 242.9 198.1 242.7C200.5 242.4 202.9 242.4 205.3 242.7C207.3 242.9 208.6 244.4 208.5 246.5C208.4 248.6 207.1 249.8 205 250C203.9 250.1 202.8 250 201.7 250Z" fill="#8B5028"/>
<path d="M32 80.4C32 79.3 31.9 78.2 32 77.2C32.2 75.1 33.7 73.5 35.7 73.6C37.8 73.7 39.2 74.9 39.4 76.9C39.6 79.1 39.6 81.4 39.4 83.6C39.3 85.8 37.6 87.1 35.6 87.1C33.6 87.1 32.1 85.6 32 83.4C32 82.4 32 81.4 32 80.4Z" fill="#8B5028"/>
<path d="M32 177.3C32 176.3 31.9 175.3 32 174.3C32.1 172.2 33.7 170.6 35.6 170.6C37.7 170.7 39.1 171.8 39.4 173.9C39.6 176.2 39.6 178.5 39.4 180.8C39.2 182.9 37.5 184.2 35.4 184C33.3 183.8 32.1 182.5 32 180.4C32 179.4 32 178.3 32 177.3Z" fill="#8B5028"/>
<path d="M250.1 177.3C250.1 178.4 250.2 179.5 250.1 180.5C249.9 182.6 248.8 183.9 246.7 184C244.7 184.2 242.9 182.8 242.8 180.7C242.6 178.5 242.6 176.2 242.8 174C242.9 171.9 244.7 170.4 246.6 170.5C248.6 170.6 250 172.1 250.2 174.2C250.1 175.3 250.1 176.3 250.1 177.3Z" fill="#8B5028"/>
<path d="M39.5 201.5C39.5 202.6 39.6 203.7 39.5 204.7C39.3 206.9 37.6 208.5 35.5 208.3C33.5 208.2 32.1 206.7 32 204.5C31.9 202.6 31.9 200.7 32 198.8C32.1 196.4 33.4 194.9 35.6 194.8C37.8 194.7 39.4 196.2 39.5 198.7C39.6 199.7 39.5 200.6 39.5 201.5Z" fill="#8B5028"/>
<path d="M250.1 201.9C250.1 202.9 250.2 203.9 250.1 204.9C249.9 207 248.7 208.3 246.6 208.4C244.5 208.5 243 207.3 242.8 205.3C242.5 202.9 242.5 200.5 242.8 198.1C243 196.1 244.5 194.9 246.6 195C248.7 195.1 249.9 196.4 250.1 198.5C250.2 199.5 250.1 200.7 250.1 201.9Z" fill="#8B5028"/>
<path d="M202 31.9C203 31.9 204 31.8 205 31.9C207.1 32.1 208.4 33.4 208.5 35.5C208.6 37.5 207.5 39.0001 205.5 39.2001C203.1 39.5001 200.5 39.5001 198.1 39.2001C196.1 39.0001 194.9 37.5 195 35.3C195.1 33.2 196.4 32 198.5 31.8C199.7 31.9 200.9 31.9 202 31.9Z" fill="#8B5028"/>
<path d="M128.8 39.4C127.6 39.4 126.5 39.6 125.3 39.4C123.3 39 122 37.6 122.2 35.6C122.3 33.5 123.6 32.2 125.7 32.1C127.8 32 129.8 32 131.9 32.1C134.1 32.2 135.6 33.6 135.6 35.6C135.7 37.7 134.3 39.3 132 39.5C131 39.5 129.9 39.4 128.8 39.4Z" fill="#8B5028"/>
<path d="M80.5 250C79.4 250 78.3 250.1 77.3 250C75.2 249.8 73.6 248.3 73.7 246.3C73.8 244.2 75 242.8 77 242.6C79.3 242.4 81.6 242.4 83.9 242.6C86 242.8 87.3 244.6 87.1 246.6C86.9 248.7 85.6 249.8 83.5 250C82.5 250.1 81.5 250 80.5 250Z" fill="#8B5028"/>
<path d="M80.3 39.4C79.1 39.4 78 39.6 76.8 39.4C74.8 39 73.5 37.7 73.6 35.6C73.7 33.5 74.9 32.2 77.1 32.1C79.2 32 81.4 32 83.6 32.1C85.7 32.2 87 33.4 87.1 35.6C87.2 37.8 86 39.1 84 39.5C82.8 39.5 81.5 39.4 80.3 39.4Z" fill="#8B5028"/>
<path d="M128.8 250C127.8 250 126.8 250.1 125.8 250C123.7 249.9 122.1 248.4 122.1 246.4C122.1 244.3 123.3 242.9 125.4 242.6C127.7 242.4 130 242.4 132.3 242.6C134.4 242.8 135.7 244.5 135.6 246.6C135.4 248.7 134.1 249.9 132 250C131 250.1 129.9 250 128.8 250Z" fill="#8B5028"/>
<path d="M177.5 250C176.4 250 175.3 250.1 174.3 250C172.2 249.9 170.9 248.6 170.8 246.5C170.7 244.4 171.9 242.9 173.9 242.6C176.3 242.3 178.7 242.3 181.1 242.6C183.1 242.8 184.3 244.2 184.2 246.4C184.1 248.5 182.9 249.7 180.8 249.9C179.6 250.1 178.5 250 177.5 250Z" fill="#8B5028"/>
<path d="M32 128.9C32 127.8 31.9 126.7 32 125.7C32.1 123.6 33.7 122 35.6 122.1C37.7 122.2 39.1 123.3 39.3 125.4C39.5 127.7 39.5 130 39.3 132.3C39.1 134.4 37.3 135.7 35.3 135.5C33.2 135.3 32.1 134 31.9 131.9C32 130.9 32 129.9 32 128.9Z" fill="#8B5028"/>
<path d="M250.1 129C250.1 130 250.2 131 250.1 132C250 134.1 248.8 135.4 246.7 135.6C244.7 135.8 242.9 134.5 242.7 132.4C242.5 130.1 242.5 127.7 242.7 125.5C242.9 123.4 244.3 122.3 246.4 122.2C248.4 122.1 249.9 123.7 250 125.9C250.2 126.8 250.1 127.9 250.1 129Z" fill="#8B5028"/>
<path d="M32 153.1C32 152 31.9 150.9 32 149.9C32.2 147.8 33.4 146.5 35.5 146.4C37.7 146.3 39.1 147.5 39.3 149.5C39.6 151.9 39.6 154.3 39.3 156.7C39.1 158.7 37.6 160 35.5 159.9C33.4 159.8 32.2 158.5 32 156.4C32 155.3 32 154.2 32 153.1Z" fill="#8B5028"/>
<path d="M153.2 31.9C154.3 31.9 155.4 31.8 156.4 31.9C158.5 32.1 159.8 33.3 159.9 35.4C160 37.5 158.8 39 156.8 39.2C154.4 39.5 152 39.5 149.6 39.2C147.6 39 146.4 37.5 146.5 35.4C146.6 33.3 147.8 32.1 149.9 31.9C151 31.9 152.1 32 153.2 31.9Z" fill="#8B5028"/>
<path d="M104.7 31.9C105.7 31.9 106.7 31.8 107.7 31.9C109.9 32 111.4 33.5 111.4 35.5C111.4 37.6 110.2 39.1 108.2 39.3C105.8 39.5 103.4 39.6 101 39.3C99 39.1 97.8 37.6 97.9 35.4C98 33.3 99.3 32.1 101.4 31.9C102.6 31.9 103.6 31.9 104.7 31.9Z" fill="#8B5028"/>
<path d="M153.2 250C152.1 250 151 250.1 150 250C147.9 249.8 146.7 248.6 146.6 246.5C146.5 244.3 147.7 242.9 149.7 242.7C152.1 242.4 154.5 242.4 156.9 242.7C158.9 242.9 160.1 244.5 160 246.6C159.9 248.6 158.6 249.9 156.5 250.1C155.3 250.1 154.2 250 153.2 250Z" fill="#8B5028"/>
<path d="M250.1 153.1C250.1 154.2 250.2 155.3 250.1 156.3C249.9 158.4 248.7 159.6 246.6 159.8C244.7 160 242.9 158.5 242.7 156.4C242.5 154.2 242.5 151.9 242.7 149.7C242.9 147.6 244.5 146.2 246.6 146.3C248.6 146.4 250 147.8 250.1 150C250.1 151.1 250.1 152.1 250.1 153.1Z" fill="#8B5028"/>
</svg>
