<svg xmlns="http://www.w3.org/2000/svg" viewBox="0 0 189.5 250.66"><defs><style>.cls-1{fill:#d1cbbe;}</style></defs><g id="Layer_2" data-name="Layer 2"><g id="Layer_1-2" data-name="Layer 1"><path class="cls-1" d="M26.91,2.94C24.26,1,20.35,0,15.23,0S6.3,1.09,3.77,3.25A10.46,10.46,0,0,0,0,11.51a11.25,11.25,0,0,0,3.47,8.37q3.47,3.36,11.61,3.37c5.43,0,9.44-1.09,12-3.24a10.88,10.88,0,0,0,3.83-8.7A9.74,9.74,0,0,0,26.91,2.94Z"/><path class="cls-1" d="M183.52,242.81c4-5.21,6-12.85,6-22.87s-2.21-17.5-6.6-22.45a21.59,21.59,0,0,0-16.78-7.38,23.25,23.25,0,0,0-17,6.78q-6.84,6.8-6.86,22.75t6.59,23.51c4.43,5,10.32,7.51,17.67,7.51S179.54,248.06,183.52,242.81Z"/><path class="cls-1" d="M164.93,52.69c-16.29-12-40.2-18-71.58-18S38.6,41.34,23.1,54.56,0,84.75,0,105.18s7.08,37.52,21.23,51.28,37.93,20.7,71.18,20.7,57.83-6.68,73.59-19.9,23.5-31.11,23.5-53.28S181.36,64.71,164.93,52.69Z"/></g></g></svg>