<svg width="282" height="282" viewBox="0 0 282 282" fill="none" xmlns="http://www.w3.org/2000/svg">
<path d="M147.2 13.0006C163.6 13.1006 177 26.6006 177 43.0006C177 59.5006 163.3 73.1005 146.9 72.9005C130.5 72.7005 117.1 59.3006 117.1 42.9006C117.1 26.4006 130.7 12.9006 147.2 13.0006Z" stroke="#8B5028" stroke-width="8" stroke-miterlimit="10"/>
<path d="M73.6 46.5006C88.3 46.6006 100.4 58.7006 100.4 73.5006C100.4 88.2006 87.9 100.601 73.3 100.501C58.5 100.301 46.5 88.2006 46.5 73.5006C46.5 58.5006 58.7 46.4006 73.6 46.5006Z" stroke="#8B5028" stroke-width="8" stroke-miterlimit="10"/>
<path d="M19 147.001C19 133.901 30 122.901 43 123.001C56.1 123.101 66.8 133.901 66.9 146.901C67 159.901 55.8 171.001 42.9 170.901C29.8 170.801 19.1 160.101 19 147.001Z" stroke="#8B5028" stroke-width="8" stroke-miterlimit="10"/>
<path d="M73.4 241.501C61.9 241.401 52.5 231.901 52.6 220.401C52.7 209.001 62.2 199.601 73.5 199.601C84.8 199.601 94.5 209.301 94.5 220.601C94.4 232.001 84.8 241.501 73.4 241.501Z" stroke="#8B5028" stroke-width="8" stroke-miterlimit="10"/>
<path d="M147.1 269.001C137.3 269.101 129.1 260.901 129 251.101C129 241.301 137.2 233.101 147 233.101C156.7 233.101 164.8 241.101 164.9 250.901C165.1 260.601 156.9 268.901 147.1 269.001Z" stroke="#8B5028" stroke-width="8" stroke-miterlimit="10"/>
<path d="M235.5 220.501C235.5 228.701 228.8 235.401 220.6 235.501C212.4 235.501 205.6 228.701 205.6 220.601C205.6 212.501 212.4 205.601 220.6 205.601C228.7 205.601 235.5 212.401 235.5 220.501Z" stroke="#8B5028" stroke-width="8" stroke-miterlimit="10"/>
<path d="M263 147.101C263 153.601 257.5 159.001 251 159.001C244.5 159.001 239.1 153.601 239 147.101C239 140.501 244.5 135.001 251.1 135.101C257.7 135.101 263.1 140.501 263 147.101Z" stroke="#8B5028" stroke-width="8" stroke-miterlimit="10"/>
<path d="M220.6 64.5005C225.5 64.5005 229.5 68.4005 229.5 73.3005C229.6 78.3005 225.5 82.4005 220.6 82.4005C215.7 82.4005 211.5 78.2005 211.6 73.3005C211.7 68.4005 215.7 64.5005 220.6 64.5005Z" stroke="#8B5028" stroke-width="8" stroke-miterlimit="10"/>
</svg>
