<svg width="282" height="282" viewBox="0 0 282 282" fill="none" xmlns="http://www.w3.org/2000/svg">
<path d="M83 111.1C81.5 111.1 80.4 111.2 79.2 111.1C76.7 110.9 75.1 109.3 75 107C74.9 104.8 76.5 102.9 79 102.6C80.9 102.4 82.8 102.5 84.7 102.5C90.2 102.5 95.7 102.5 101.6 102.5C101.6 101.4 101.6 100.5 101.6 99.4999C101.6 86.3999 101.6 73.2999 101.6 60.2999C101.6 59.3999 101.6 58.4999 101.8 57.5999C102.2 55.4999 104 53.9999 106 54.0999C108.2 54.1999 109.8 55.7999 110.1 58.0999C110.2 58.8999 110.2 59.7999 110.2 60.5999C110.2 73.4999 110.2 86.3999 110.2 99.2999C110.2 100.3 110.2 101.3 110.2 102.4C129.5 102.4 148.5 102.4 167.9 102.4C167.9 101.4 167.9 100.4 167.9 99.3999C167.9 86.4999 167.9 73.5999 167.9 60.6999C167.9 59.8999 167.9 58.9999 167.9 58.1999C168.1 55.8999 169.7 54.2999 171.9 54.0999C174 53.9999 175.9 55.4999 176.3 57.6999C176.5 58.5999 176.4 59.4999 176.4 60.3999C176.4 73.2999 176.4 86.1999 176.4 99.0999C176.4 100.1 176.4 101.1 176.4 102.5C177.4 102.5 178.3 102.5 179.2 102.5C185.5 102.5 191.9 102.5 198.2 102.5C200.3 102.5 202.3 103.2 202.6 105.4C202.8 106.8 202.2 108.6 201.5 109.9C201.1 110.6 199.7 110.8 198.6 111C197.6 111.2 196.5 111 195.1 111C195.1 112 195 112.9 195 113.8C195 128.5 195 143.1 195 157.8C195 185.7 176.3 208.3 149 213.7C119.5 219.5 89.1 198.7 84 169.1C83.3 165.3 83 161.3 83 157.4C82.9 143 83 128.6 83 114.2C83 113.3 83 112.4 83 111.1ZM133.7 160.8C135.8 160.8 137.9 160.8 139.9 160.8C140 160.8 140.1 160.8 140.1 160.8C143.4 160.9 144.2 162.1 142.7 165C140.3 169.8 137.9 174.7 135.4 179.5C134.5 181.4 134.3 183.2 135.7 184.9C137.8 187.4 141.3 186.8 143 183.5C147 175.6 151 167.6 155 159.6C157.2 155.1 155.5 152.3 150.4 152.3C146.2 152.3 142.1 152.3 137.9 152.3C134.4 152.3 133.7 151.1 135.2 148C137.6 143.1 140.1 138.2 142.5 133.3C143.7 130.8 143 128.4 140.9 127.3C138.7 126.2 136.3 126.9 135 129.4C130.8 137.7 126.6 146 122.5 154.4C120.8 157.8 122.6 160.7 126.4 160.9C128.9 160.9 131.3 160.8 133.7 160.8Z" stroke="#8B5028" stroke-width="7" stroke-miterlimit="10"/>
<path d="M138.8 14.6C200.5 15 254 59.5 264.8 119.9C266.1 127.2 266.4 134.6 266.9 142C267.1 145.3 265.4 147.4 262.8 147.4C260.2 147.5 258.6 145.4 258.4 142.1C256.7 96.4 236.3 61.6 196.8 38.8C170.6 23.6 142 19.9 112.5 26.7C66 37.4 30.4 73.5 21.9 120.5C13.5 167 28.3 205.8 64.4 236.4C65 236.9 65.7 237.4 66.3 238C68 239.7 68.1 242.2 66.7 243.9C65.3 245.6 63 246 61.1 244.6C59.2 243.3 57.4 241.8 55.6 240.2C29.2 217 14.2 187.9 11.4 152.8C6.39999 87.9 51.2 29.5 115.3 17.5C123.1 16 131 15.5 138.8 14.6Z" fill="#8B5028"/>
<path d="M134.7 233.3C132.9 233.3 131.4 233.4 130 233.3C126.7 233.1 125.3 230.9 125.6 227.1C125.8 224 127.8 222.5 131 222.6C136.3 222.7 141.6 222.7 146.9 222.6C150.1 222.5 152 223.9 152.3 227.1C152.6 231.1 151.1 233.2 147.7 233.4C146.4 233.5 145 233.4 143.3 233.4C143.3 235.1 143.3 236.6 143.3 238.2C143.3 241.9 143.2 245.7 143.4 249.4C143.8 256.8 150.2 262.2 157.6 261.2C176.4 258.5 193.4 251.3 208.8 240.2C227.6 226.6 241.4 208.9 250 187.4C250.2 186.9 250.4 186.3 250.7 185.8C251.9 183.3 254.2 182.4 256.5 183.4C258.6 184.3 259.7 186.7 258.6 189.1C254.8 196.9 251.5 205.1 246.7 212.4C226.4 243.7 197.6 262.6 160.9 269.6C146.7 272.3 135 262.7 134.7 248.1C134.6 243.1 134.7 238.4 134.7 233.3Z" fill="#8B5028"/>
<path d="M264.1 169.6C264 173.3 262.1 175.9 259.4 175.8C257.1 175.8 255.2 173.8 255.2 171.5C255.2 167.7 257.3 165 260.1 165.1C262.4 165.2 264.2 167.1 264.1 169.6Z" stroke="#8B5028" stroke-width="5" stroke-miterlimit="10"/>
</svg>
