<svg width="282" height="282" viewBox="0 0 282 282" fill="none" xmlns="http://www.w3.org/2000/svg">
<path d="M207.6 96.9C214.9 92.1 221.7 87.7 228.5 83.2C236 78.3 243.4 73.5 250.8 68.5C254.8 65.8 258.9 65.1 263.3 67.5C267.6 69.9 269.2 73.7 269.2 78.5C269.2 119.8 269.2 161.2 269.2 202.5C269.2 207.4 267.6 211.3 263.1 213.7C258.7 216 254.7 215.2 250.6 212.5C237.3 203.7 223.9 195 210.5 186.2C209.7 185.7 208.8 185.1 207.7 184.5C207.6 185.4 207.5 186.1 207.5 186.8C207.5 194 207.5 201.1 207.5 208.3C207.4 220.1 199.4 228.1 187.7 228.1C136.1 228.1 84.5 228.1 32.9 228.1C21 228.1 13 220.1 13 208.2C13 163.1 13 118 13 72.9C13.1 61.1 21.1 53.1 32.8 53C44.6 53 56.3 53 68.1 53C68.5 53 68.9 53 69.3 53C71.6 53.2 73.1 54.7 73.1 56.8C73.1 58.9 71.6 60.5 69.2 60.5C63.3 60.6 57.4 60.5 51.4 60.5C45 60.5 38.6 60.5 32.1 60.5C25.2 60.6 20.4 65.3 20.4 72.2C20.4 117.8 20.4 163.4 20.4 209C20.4 215.7 25.2 220.6 31.9 220.6C84.1 220.6 136.2 220.6 188.4 220.6C195.1 220.6 199.8 215.7 199.8 208.7C199.8 192.6 199.8 176.5 199.8 160.4C199.8 150.7 199.8 141.1 199.8 131.4C199.8 127.5 201 125.8 203.6 125.9C206.1 126 207.3 127.7 207.3 131.3C207.3 145.2 207.3 159.1 207.3 173.1C207.3 174.6 207.6 175.7 209 176.6C224.1 186.4 239.1 196.3 254.2 206.1C255.8 207.2 257.4 208.3 259.5 207.1C261.4 206 261.4 204.2 261.4 202.3C261.4 161.2 261.4 120.1 261.4 79C261.4 78.6 261.4 78.2 261.4 77.7C261.2 74.1 258.3 72.4 255.3 74.4C239.7 84.6 224.1 94.8 208.5 105.1C207.8 105.5 207.4 106.7 207.3 107.5C207.1 109.7 207.3 111.8 207.2 114C207.1 116.7 205.6 118.3 203.3 118.2C201.1 118.1 199.7 116.6 199.7 114C199.7 100.5 199.7 87 199.7 73.5C199.7 65 195.3 60.6 186.8 60.6C153.2 60.6 119.6 60.6 86 60.6C85.2 60.6 84.3 60.7 83.5 60.5C81.5 60.1 80.4 58.8 80.3 56.9C80.3 54.9 81.4 53.6 83.4 53.2C84.1 53 84.9 53.1 85.6 53.1C119.4 53.1 153.3 53.1 187.1 53.1C199.2 53.1 207.1 61 207.2 73.1C207.6 80.8 207.6 88.6 207.6 96.9Z" fill="#8B5028"/>
<path d="M70.7 140.6C70.7 127.2 70.7 113.8 70.7 100.3C70.7 95.4 72.2 91.5 76.7 89C81.1 86.6 85.3 87.5 89.4 90.1C98 95.7 106.7 101.3 115.4 106.9C115.7 107.1 116.1 107.3 116.4 107.6C118.3 109 118.7 111.1 117.5 112.9C116.3 114.7 114.2 115.1 112.2 113.9C107.9 111.2 103.6 108.4 99.4 105.7C94.6 102.6 89.9 99.6 85.1 96.5C83.6 95.5 82.1 94.6 80.2 95.7C78.4 96.7 78.1 98.3 78.1 100.2C78.1 127.2 78.1 154.2 78.1 181.2C78.1 183.1 78.4 184.7 80.2 185.7C81.9 186.7 83.4 186 84.8 185C105.8 171.5 126.8 158 147.8 144.5C151.4 142.2 151.4 139.3 147.7 136.9C140.4 132.2 133.1 127.5 125.9 122.8C125.3 122.4 124.8 122.1 124.2 121.7C122.3 120.3 121.9 118.2 123 116.5C124.2 114.7 126.2 114.2 128.2 115.5C131.7 117.7 135.2 120 138.7 122.2C143.2 125.1 147.7 127.9 152.1 130.8C159.8 135.8 159.9 145.5 152.2 150.4C131 164.2 109.6 177.8 88.3 191.5C84.4 194 80.4 194.5 76.3 192.2C72.2 189.9 70.4 186.3 70.4 181.6C70.7 167.9 70.7 154.2 70.7 140.6Z" fill="#8B5028"/>
</svg>
