<?xml version="1.0" encoding="utf-8"?>
<!-- Generator: Adobe Illustrator 22.1.0, SVG Export Plug-In . SVG Version: 6.00 Build 0)  -->
<svg version="1.1" id="Layer_1" xmlns="http://www.w3.org/2000/svg" xmlns:xlink="http://www.w3.org/1999/xlink" x="0px" y="0px"
	 viewBox="0 0 185.7 31" style="enable-background:new 0 0 185.7 31;" xml:space="preserve">
<style type="text/css">
	.st0{fill:#1D1D1B;}
</style>
<path class="st0" d="M0,0.6h1.5v28.1h17v1.5H0V0.6z"/>
<path class="st0" d="M24.8,0.6h1.5v29.6h-1.5V0.6z"/>
<path class="st0" d="M52.1,2.1h-17v7.8h11.1v1.6H33.6V0.6h18.5V2.1z M52.1,30.2H33.6V19.3h12.6v1.5H35.1v7.8h17L52.1,30.2z"/>
<path class="st0" d="M71.5,6.9L83.8,17V0.6h1.5v19.7L71.5,8.9L57.6,20.3V0.6h1.5V17L71.5,6.9z M84,29l-1,1.1l-11.5-9.4L60,30.2
	L59,29l12.5-10.3L84,29z"/>
<path class="st0" d="M122.3,15.4c0.1,8.6-6.8,15.6-15.4,15.6c-8.6,0.1-15.6-6.8-15.6-15.4C91.2,7.1,98.1,0.1,106.6,0
	c0,0,0.1,0,0.1,0c8.4-0.2,15.3,6.4,15.5,14.8C122.3,15,122.3,15.2,122.3,15.4z M120.7,15.4c0-7.7-6.2-14-13.9-14
	c-7.7,0-14,6.2-14,13.9c0,7.7,6.2,14,13.9,14c0,0,0,0,0,0c7.6,0.2,13.8-5.9,14-13.5C120.7,15.7,120.7,15.6,120.7,15.4L120.7,15.4z"
	/>
<path class="st0" d="M158.4,15.4c0.1,8.6-6.8,15.6-15.4,15.6c-8.6,0.1-15.6-6.8-15.6-15.4S134.2,0.1,142.8,0c0,0,0.1,0,0.1,0
	c8.4-0.2,15.3,6.4,15.5,14.8C158.4,15,158.4,15.2,158.4,15.4z M156.9,15.4c0-7.7-6.2-14-13.9-14c-7.7,0-14,6.2-14,13.9
	s6.2,14,13.9,14c0,0,0,0,0,0c7.6,0.2,13.8-5.9,14-13.5C156.9,15.7,156.9,15.6,156.9,15.4z"/>
<path class="st0" d="M171.3,0.6c19.2,0,19.2,29.6,0,29.6h-7.6V0.6H171.3z M171.3,28.7c17,0,17-26.5,0-26.5h-6.1v26.5H171.3z"/>
</svg>
