<?xml version="1.0" encoding="UTF-8"?>
<svg xmlns="http://www.w3.org/2000/svg" viewBox="0 0 200 80">
  <defs>
    <style>
      .cls-1 {
        fill: #9e7a7a;
      }

      .cls-2 {
        fill: #0073c3;
      }

      .cls-3 {
        font-family: MyriadPro-Regular, Myriad Pro;
        font-size: 12px;
      }
    </style>
  </defs>
  <g id="Layer_1" data-name="Layer 1">
    <g>
      <text class="cls-3" transform="translate(24.95 101.05) rotate(-87.91)"><tspan x="0" y="0">L</tspan></text>
      <text class="cls-3" transform="translate(25.11 95.69) rotate(-83.5)"><tspan x="0" y="0">o</tspan></text>
      <text class="cls-3" transform="translate(25.88 89.28) rotate(-79.58)"><tspan x="0" y="0">r</tspan></text>
      <text class="cls-3" transform="translate(26.51 85.65) rotate(-75.95)"><tspan x="0" y="0">e</tspan></text>
      <text class="cls-3" transform="translate(27.81 79.99) rotate(-69.96)"><tspan x="0" y="0">m</tspan></text>
      <text class="cls-3" transform="translate(31.32 70.8) rotate(-65.26)"><tspan x="0" y="0"> </tspan></text>
      <text class="cls-3" transform="translate(32.35 68.54) rotate(-63.25)"><tspan x="0" y="0">i</tspan></text>
      <text class="cls-3" transform="translate(33.5 66.12) rotate(-59.67)"><tspan x="0" y="0">p</tspan></text>
      <text class="cls-3" transform="translate(36.9 60.37) rotate(-55.35)"><tspan x="0" y="0">s</tspan></text>
      <text class="cls-3" transform="translate(39.48 56.57) rotate(-51.15)"><tspan x="0" y="0">u</tspan></text>
      <text class="cls-3" transform="translate(43.43 51.5) rotate(-45)"><tspan x="0" y="0">m</tspan></text>
      <text class="cls-3" transform="translate(50.5 44.64) rotate(-40.34)"><tspan x="0" y="0"> </tspan></text>
      <text class="cls-3" transform="translate(52.31 43.02) rotate(-36.9)"><tspan x="0" y="0">d</tspan></text>
      <text class="cls-3" transform="translate(57.57 39.06) rotate(-31.95)"><tspan x="0" y="0">o</tspan></text>
      <text class="cls-3" transform="translate(63.08 35.69) rotate(-28.45)"><tspan x="0" y="0">l</tspan></text>
      <text class="cls-3" transform="translate(65.45 34.33) rotate(-24.92)"><tspan x="0" y="0">o</tspan></text>
      <text class="cls-3" transform="translate(71.31 31.66) rotate(-20.99)"><tspan x="0" y="0">r</tspan></text>
      <text class="cls-3" transform="translate(74.9 30.29) rotate(-18.56)"><tspan x="0" y="0"> </tspan></text>
      <text class="cls-3" transform="translate(77.21 29.49) rotate(-15.83)"><tspan x="0" y="0">s</tspan></text>
      <text class="cls-3" transform="translate(81.69 28.24) rotate(-13)"><tspan x="0" y="0">i</tspan></text>
      <text class="cls-3" transform="translate(84.34 27.61) rotate(-10.46)"><tspan x="0" y="0">t</tspan></text>
      <text class="cls-3" transform="translate(88.16 26.92) rotate(-8.03)"><tspan x="0" y="0"> </tspan></text>
      <text class="cls-3" transform="translate(90.58 26.53) rotate(-4.94)"><tspan x="0" y="0">a</tspan></text>
      <text class="cls-3" transform="translate(96.13 25.92) rotate(1.01)"><tspan x="0" y="0">m</tspan></text>
      <text class="cls-3" transform="translate(105.95 26.17) rotate(6.77)"><tspan x="0" y="0">e</tspan></text>
      <text class="cls-3" transform="translate(111.77 26.89) rotate(10.48)"><tspan x="0" y="0">t</tspan></text>
      <text class="cls-3" transform="translate(115.57 27.61) rotate(12.87)"><tspan x="0" y="0">,</tspan></text>
      <text class="cls-3" transform="translate(117.91 28.14) rotate(14.75)"><tspan x="0" y="0"> </tspan></text>
      <text class="cls-3" transform="translate(120.29 28.73) rotate(17.72)"><tspan x="0" y="0">c</tspan></text>
      <text class="cls-3" transform="translate(125.21 30.26) rotate(22.15)"><tspan x="0" y="0">o</tspan></text>
      <text class="cls-3" transform="translate(131.16 32.68) rotate(27.1)"><tspan x="0" y="0">n</tspan></text>
      <text class="cls-3" transform="translate(136.95 35.68) rotate(31.37)"><tspan x="0" y="0">s</tspan></text>
      <text class="cls-3" transform="translate(140.91 38.06) rotate(35.37)"><tspan x="0" y="0">e</tspan></text>
      <text class="cls-3" transform="translate(145.68 41.45) rotate(39.58)"><tspan x="0" y="0">c</tspan></text>
      <text class="cls-3" transform="translate(149.84 44.92) rotate(43.16)"><tspan x="0" y="0">t</tspan></text>
      <text class="cls-3" transform="translate(152.61 47.46) rotate(46.78)"><tspan x="0" y="0">e</tspan></text>
      <text class="cls-3" transform="translate(156.63 51.79) rotate(50.49)"><tspan x="0" y="0">t</tspan></text>
      <text class="cls-3" transform="translate(159.11 54.71) rotate(54.41)"><tspan x="0" y="0">u</tspan></text>
      <text class="cls-3" transform="translate(162.85 59.96) rotate(59.09)"><tspan x="0" y="0">e</tspan></text>
      <text class="cls-3" transform="translate(165.85 65.02) rotate(62.8)"><tspan x="0" y="0">r</tspan></text>
      <text class="cls-3" transform="translate(167.59 68.44) rotate(65.21)"><tspan x="0" y="0"> </tspan></text>
      <text class="cls-3" transform="translate(168.63 70.68) rotate(67.11)"><tspan x="0" y="0"> </tspan></text>
      <circle class="cls-1" cx="100" cy="101" r="72.5"/>
    </g>
    <rect class="cls-2" x="0" y="60" width="200" height="20"/>
  </g>
  <g id="Layer_2" data-name="Layer 2"/>
</svg>